<?xml version="1.0" encoding="UTF-8"?>
<svg xmlns="http://www.w3.org/2000/svg" version="1.1" width="300" height="300" viewBox="0 0 300 300"><rect x="0" y="0" width="300" height="300" fill="#ffffff"/><g transform="scale(9.091)"><g transform="translate(0,0)"><path fill-rule="evenodd" d="M10 0L10 2L11 2L11 0ZM12 0L12 1L13 1L13 0ZM14 0L14 1L15 1L15 2L16 2L16 3L13 3L13 2L12 2L12 4L16 4L16 5L11 5L11 6L10 6L10 4L11 4L11 3L8 3L8 4L9 4L9 5L8 5L8 7L9 7L9 8L6 8L6 9L5 9L5 8L0 8L0 9L2 9L2 10L0 10L0 12L1 12L1 11L2 11L2 10L4 10L4 11L5 11L5 12L6 12L6 13L7 13L7 14L6 14L6 15L5 15L5 14L4 14L4 15L3 15L3 17L4 17L4 18L5 18L5 17L4 17L4 16L6 16L6 17L8 17L8 19L9 19L9 20L10 20L10 21L8 21L8 22L5 22L5 23L7 23L7 24L6 24L6 25L7 25L7 24L8 24L8 27L9 27L9 28L8 28L8 33L10 33L10 31L9 31L9 30L10 30L10 27L11 27L11 25L12 25L12 26L13 26L13 27L12 27L12 29L13 29L13 28L14 28L14 29L16 29L16 30L15 30L15 31L14 31L14 32L15 32L15 33L20 33L20 32L19 32L19 31L18 31L18 32L17 32L17 29L18 29L18 30L20 30L20 31L21 31L21 32L22 32L22 33L27 33L27 31L28 31L28 32L29 32L29 33L30 33L30 32L31 32L31 33L32 33L32 32L31 32L31 31L30 31L30 30L33 30L33 27L32 27L32 26L33 26L33 24L32 24L32 26L31 26L31 25L30 25L30 24L31 24L31 23L32 23L32 22L33 22L33 21L32 21L32 20L31 20L31 19L32 19L32 18L33 18L33 17L32 17L32 16L31 16L31 15L32 15L32 14L33 14L33 13L31 13L31 15L30 15L30 16L31 16L31 19L30 19L30 17L29 17L29 14L28 14L28 16L27 16L27 15L25 15L25 14L27 14L27 13L26 13L26 11L28 11L28 10L27 10L27 9L28 9L28 8L27 8L27 9L26 9L26 8L25 8L25 10L26 10L26 11L25 11L25 12L24 12L24 11L23 11L23 10L24 10L24 9L23 9L23 8L24 8L24 7L25 7L25 5L24 5L24 4L25 4L25 2L24 2L24 4L23 4L23 3L22 3L22 2L23 2L23 1L24 1L24 0L23 0L23 1L20 1L20 0L19 0L19 1L18 1L18 2L19 2L19 1L20 1L20 3L19 3L19 4L18 4L18 3L17 3L17 2L16 2L16 1L15 1L15 0ZM8 1L8 2L9 2L9 1ZM16 3L16 4L17 4L17 7L16 7L16 6L15 6L15 7L14 7L14 6L13 6L13 7L12 7L12 6L11 6L11 7L12 7L12 9L11 9L11 8L10 8L10 9L9 9L9 11L8 11L8 14L7 14L7 15L6 15L6 16L7 16L7 15L11 15L11 14L16 14L16 16L14 16L14 15L12 15L12 17L11 17L11 16L9 16L9 18L10 18L10 20L11 20L11 21L10 21L10 22L9 22L9 26L10 26L10 25L11 25L11 23L10 23L10 22L13 22L13 23L12 23L12 25L15 25L15 26L17 26L17 28L16 28L16 29L17 29L17 28L18 28L18 29L20 29L20 27L21 27L21 26L19 26L19 25L22 25L22 27L23 27L23 29L22 29L22 28L21 28L21 30L23 30L23 32L25 32L25 31L26 31L26 30L27 30L27 29L26 29L26 30L25 30L25 29L24 29L24 27L23 27L23 26L24 26L24 25L22 25L22 24L23 24L23 23L24 23L24 24L25 24L25 23L24 23L24 22L26 22L26 23L27 23L27 24L28 24L28 23L27 23L27 22L29 22L29 21L30 21L30 23L31 23L31 20L30 20L30 19L29 19L29 17L27 17L27 16L24 16L24 14L23 14L23 13L22 13L22 12L23 12L23 11L22 11L22 12L21 12L21 11L20 11L20 10L19 10L19 9L22 9L22 10L23 10L23 9L22 9L22 8L20 8L20 6L21 6L21 7L22 7L22 6L23 6L23 7L24 7L24 5L23 5L23 4L22 4L22 3L21 3L21 4L20 4L20 5L19 5L19 7L18 7L18 4L17 4L17 3ZM21 5L21 6L22 6L22 5ZM9 6L9 7L10 7L10 6ZM15 7L15 8L16 8L16 9L19 9L19 8L16 8L16 7ZM13 8L13 9L12 9L12 10L13 10L13 9L14 9L14 10L15 10L15 11L14 11L14 12L13 12L13 11L12 11L12 13L16 13L16 14L17 14L17 15L18 15L18 16L16 16L16 17L19 17L19 18L17 18L17 19L19 19L19 21L18 21L18 20L14 20L14 19L16 19L16 18L14 18L14 17L12 17L12 18L13 18L13 19L12 19L12 21L13 21L13 20L14 20L14 21L16 21L16 22L15 22L15 23L14 23L14 24L15 24L15 25L19 25L19 24L17 24L17 23L19 23L19 22L20 22L20 24L22 24L22 23L21 23L21 22L24 22L24 21L26 21L26 22L27 22L27 21L26 21L26 20L28 20L28 21L29 21L29 20L28 20L28 18L27 18L27 17L26 17L26 18L25 18L25 19L26 19L26 20L22 20L22 19L23 19L23 18L24 18L24 16L23 16L23 15L22 15L22 13L20 13L20 12L19 12L19 10L17 10L17 11L16 11L16 10L15 10L15 9L14 9L14 8ZM29 8L29 9L30 9L30 10L29 10L29 11L30 11L30 12L28 12L28 13L30 13L30 12L31 12L31 11L32 11L32 10L33 10L33 9L32 9L32 8L31 8L31 9L30 9L30 8ZM4 9L4 10L5 10L5 9ZM6 9L6 10L8 10L8 9ZM10 9L10 11L11 11L11 9ZM30 10L30 11L31 11L31 10ZM6 11L6 12L7 12L7 11ZM17 11L17 12L18 12L18 13L17 13L17 14L18 14L18 13L19 13L19 12L18 12L18 11ZM9 12L9 13L11 13L11 12ZM1 13L1 14L0 14L0 15L1 15L1 16L2 16L2 15L1 15L1 14L3 14L3 13ZM19 14L19 15L20 15L20 14ZM21 16L21 17L20 17L20 18L19 18L19 19L20 19L20 18L21 18L21 17L22 17L22 16ZM1 17L1 18L0 18L0 19L2 19L2 17ZM10 17L10 18L11 18L11 17ZM6 18L6 19L5 19L5 20L4 20L4 19L3 19L3 20L2 20L2 22L3 22L3 20L4 20L4 21L5 21L5 20L6 20L6 21L7 21L7 20L6 20L6 19L7 19L7 18ZM20 20L20 22L21 22L21 21L22 21L22 20ZM0 21L0 25L1 25L1 21ZM17 21L17 22L18 22L18 21ZM15 23L15 24L16 24L16 23ZM3 24L3 25L5 25L5 24ZM25 25L25 28L28 28L28 25ZM26 26L26 27L27 27L27 26ZM30 26L30 27L31 27L31 26ZM14 27L14 28L15 28L15 27ZM18 27L18 28L19 28L19 27ZM30 28L30 29L31 29L31 28ZM11 30L11 33L12 33L12 31L13 31L13 30ZM24 30L24 31L25 31L25 30ZM28 30L28 31L29 31L29 30ZM0 0L0 7L7 7L7 0ZM1 1L1 6L6 6L6 1ZM2 2L2 5L5 5L5 2ZM26 0L26 7L33 7L33 0ZM27 1L27 6L32 6L32 1ZM28 2L28 5L31 5L31 2ZM0 26L0 33L7 33L7 26ZM1 27L1 32L6 32L6 27ZM2 28L2 31L5 31L5 28Z" fill="#000000"/></g></g></svg>
